<svg width="775" height="353" viewBox="0 0 775 353" fill="none" xmlns="http://www.w3.org/2000/svg">
<path d="M377.735 311.615C377.135 311.415 376.385 311.165 375.485 310.865C374.585 310.565 373.235 310.015 371.435 309.215H301.985C300.985 307.915 300.135 306.465 299.435 304.865C298.835 303.165 298.535 301.465 298.535 299.765C301.835 299.765 304.285 299.165 305.885 297.965C307.585 296.765 308.435 294.765 308.435 291.965V221.615C308.435 218.815 307.635 216.865 306.035 215.765C304.435 214.565 301.985 213.965 298.685 213.965C298.685 212.265 298.985 210.615 299.585 209.015C300.285 207.315 301.135 205.815 302.135 204.515H360.335C362.135 203.715 364.135 203.115 366.335 202.715C368.535 202.215 370.585 201.965 372.485 201.965C373.385 203.565 374.385 205.915 375.485 209.015C376.685 212.015 377.735 215.015 378.635 218.015C379.535 221.015 379.985 223.365 379.985 225.065C379.185 225.865 377.885 226.665 376.085 227.465C374.385 228.265 372.635 228.965 370.835 229.565C369.035 230.165 367.535 230.615 366.335 230.915C365.235 227.615 363.285 224.515 360.485 221.615C357.785 218.715 354.435 217.265 350.435 217.265H333.485V248.915H344.285C347.085 248.915 349.385 248.115 351.185 246.515C353.085 244.815 354.035 241.965 354.035 237.965C358.535 237.965 362.585 239.015 366.185 241.115V269.015C362.785 271.115 358.785 272.165 354.185 272.165C354.185 268.165 353.235 265.265 351.335 263.465C349.535 261.665 347.235 260.765 344.435 260.765H333.485V296.015H351.635C356.035 296.015 359.735 294.215 362.735 290.615C365.835 286.915 367.735 282.565 368.435 277.565H384.485C384.485 279.065 384.235 281.415 383.735 284.615C383.335 287.715 382.785 291.115 382.085 294.815C381.485 298.415 380.785 301.765 379.985 304.865C379.185 307.965 378.435 310.215 377.735 311.615Z" fill="#E16868"/>
<path d="M408.105 309.215C405.905 306.715 404.805 303.515 404.805 299.615C410.205 299.615 414.355 298.965 417.255 297.665C420.255 296.365 421.755 294.315 421.755 291.515V216.365H418.455C415.855 216.365 413.255 217.165 410.655 218.765C408.155 220.365 405.955 223.315 404.055 227.615C402.255 231.815 401.005 237.965 400.305 246.065C399.105 245.965 397.605 245.865 395.805 245.765C394.005 245.665 392.255 245.515 390.555 245.315C388.955 245.015 387.705 244.715 386.805 244.415C386.805 242.315 386.905 239.365 387.105 235.565C387.305 231.765 387.605 227.715 388.005 223.415C388.405 219.115 388.905 215.115 389.505 211.415C390.205 207.615 391.005 204.715 391.905 202.715C393.705 202.715 395.755 202.865 398.055 203.165C400.355 203.465 402.405 203.915 404.205 204.515H462.705C464.605 203.915 466.655 203.465 468.855 203.165C471.055 202.865 473.105 202.715 475.005 202.715C475.905 204.715 476.655 207.615 477.255 211.415C477.955 215.115 478.505 219.115 478.905 223.415C479.305 227.715 479.605 231.765 479.805 235.565C480.005 239.365 480.105 242.315 480.105 244.415C478.805 244.915 476.705 245.315 473.805 245.615C471.005 245.915 468.605 246.065 466.605 246.065C466.005 237.965 465.005 231.815 463.605 227.615C462.205 223.315 460.355 220.365 458.055 218.765C455.755 217.165 452.805 216.365 449.205 216.365H446.655V291.515C446.655 296.915 451.955 299.615 462.555 299.615C462.555 303.515 461.405 306.715 459.105 309.215H408.105Z" fill="#E16868"/>
<path d="M488.609 309.215C486.409 306.715 485.309 303.515 485.309 299.615C488.609 299.615 490.909 299.065 492.209 297.965C493.609 296.865 494.309 294.915 494.309 292.115V221.615C494.309 218.815 493.609 216.865 492.209 215.765C490.909 214.565 488.609 213.965 485.309 213.965C485.309 210.165 486.409 207.015 488.609 204.515H525.209C526.209 205.715 527.009 207.165 527.609 208.865C528.209 210.565 528.509 212.265 528.509 213.965C525.209 213.965 522.859 214.565 521.459 215.765C520.159 216.865 519.509 218.815 519.509 221.615V249.665H552.209V221.615C552.209 218.815 551.509 216.865 550.109 215.765C548.709 214.565 546.409 213.965 543.209 213.965C543.209 210.165 544.309 207.015 546.509 204.515H583.259C585.459 207.015 586.559 210.165 586.559 213.965C583.359 213.965 581.009 214.565 579.509 215.765C578.109 216.865 577.409 218.815 577.409 221.615V292.115C577.409 294.915 578.109 296.865 579.509 297.965C581.009 299.065 583.359 299.615 586.559 299.615C586.559 303.515 585.459 306.715 583.259 309.215H546.509C544.309 306.715 543.209 303.515 543.209 299.615C546.409 299.615 548.709 299.065 550.109 297.965C551.509 296.865 552.209 294.915 552.209 292.115V262.265H519.509V292.115C519.509 294.915 520.159 296.865 521.459 297.965C522.859 299.065 525.209 299.615 528.509 299.615C528.509 301.415 528.209 303.165 527.609 304.865C527.009 306.565 526.209 308.015 525.209 309.215H488.609Z" fill="#E16868"/>
<path d="M640.644 311.165C630.944 311.165 622.644 308.915 615.744 304.415C608.844 299.915 603.544 293.615 599.844 285.515C596.144 277.315 594.294 267.815 594.294 257.015C594.294 245.515 596.194 235.765 599.994 227.765C603.794 219.665 609.144 213.465 616.044 209.165C623.044 204.865 631.194 202.715 640.494 202.715C650.194 202.715 658.494 204.965 665.394 209.465C672.394 213.965 677.744 220.315 681.444 228.515C685.244 236.615 687.144 246.115 687.144 257.015C687.144 268.415 685.194 278.165 681.294 286.265C677.494 294.265 672.094 300.415 665.094 304.715C658.194 309.015 650.044 311.165 640.644 311.165ZM640.644 300.215C642.944 300.215 645.194 299.615 647.394 298.415C649.594 297.215 651.594 295.065 653.394 291.965C655.194 288.865 656.594 284.465 657.594 278.765C658.694 272.965 659.244 265.515 659.244 256.415C659.244 245.115 658.444 236.415 656.844 230.315C655.244 224.115 653.044 219.815 650.244 217.415C647.544 215.015 644.444 213.815 640.944 213.815C638.644 213.815 636.394 214.415 634.194 215.615C631.994 216.815 629.994 218.965 628.194 222.065C626.394 225.165 624.944 229.565 623.844 235.265C622.844 240.965 622.344 248.365 622.344 257.465C622.344 268.765 623.144 277.515 624.744 283.715C626.344 289.915 628.544 294.215 631.344 296.615C634.144 299.015 637.244 300.215 640.644 300.215Z" fill="#E16868"/>
<path d="M703.785 311.465C702.485 308.865 701.285 305.265 700.185 300.665C699.185 295.965 698.335 291.065 697.635 285.965C697.035 280.865 696.735 276.315 696.735 272.315H711.735C713.335 280.815 716.485 287.465 721.185 292.265C725.985 297.065 731.535 299.465 737.835 299.465C740.935 299.465 743.335 298.865 745.035 297.665C746.835 296.365 748.135 294.815 748.935 293.015C749.735 291.215 750.135 289.515 750.135 287.915C750.135 284.615 749.035 281.765 746.835 279.365C744.635 276.965 741.835 274.815 738.435 272.915C735.135 270.915 731.785 269.115 728.385 267.515C719.585 263.215 712.635 258.315 707.535 252.815C702.435 247.215 699.885 240.215 699.885 231.815C699.885 225.715 701.385 220.565 704.385 216.365C707.385 212.065 711.385 208.765 716.385 206.465C721.485 204.165 727.185 203.015 733.485 203.015C736.385 203.015 739.785 203.315 743.685 203.915C747.685 204.515 750.935 205.515 753.435 206.915L766.185 203.015C767.585 205.315 768.535 208.365 769.035 212.165C769.635 215.865 769.985 219.715 770.085 223.715C770.285 227.715 770.385 231.365 770.385 234.665V236.915H757.935C755.835 228.415 752.885 222.665 749.085 219.665C745.285 216.565 741.185 215.015 736.785 215.015C732.685 215.015 729.635 216.215 727.635 218.615C725.735 220.915 724.785 223.815 724.785 227.315C724.785 230.515 725.635 233.215 727.335 235.415C729.135 237.615 731.435 239.565 734.235 241.265C737.035 242.865 739.985 244.465 743.085 246.065C746.485 247.665 750.035 249.515 753.735 251.615C757.435 253.615 760.835 255.965 763.935 258.665C767.135 261.365 769.685 264.565 771.585 268.265C773.585 271.965 774.585 276.315 774.585 281.315C774.585 286.815 773.185 291.865 770.385 296.465C767.585 300.965 763.585 304.615 758.385 307.415C753.185 310.115 746.885 311.465 739.485 311.465C736.085 311.465 732.335 311.065 728.235 310.265C724.235 309.565 719.935 308.265 715.335 306.365L703.785 311.465Z" fill="#E16868"/>
<path d="M294.5 139.716C229.5 172.216 220 193.961 147.5 173.961C84 367.961 0 161.957 0 127.716C0 93.4741 138.5 13.7156 191.5 0.714968C302.5 -10.1304 294.5 105.474 294.5 139.716Z" fill="#CB80D6"/>
<path d="M294.5 133.337C294.5 214.523 223 315.341 147.5 352.837C70.5 319.841 0.5 214.523 0.5 133.337C35.5 76.8407 101.5 76.8407 147.5 163.339C187.5 72.3404 258.5 70.3398 294.5 133.337Z" fill="#E16868"/>
</svg>
