<svg width="529" height="213" viewBox="0 0 529 213" fill="none" xmlns="http://www.w3.org/2000/svg">
<path fill-rule="evenodd" clip-rule="evenodd" d="M492.152 0C531.572 1.72459e-06 528.964 15.7196 528.964 55.1737C528.964 71.405 523.556 86.3717 514.444 98.3675C523.556 110.363 528.965 125.33 528.965 141.562C528.965 181.016 497.009 213 457.59 213C418.171 213 386.215 181.016 386.215 141.562C386.215 125.331 391.623 110.364 400.735 98.3682C391.623 86.3723 386.214 71.4052 386.214 55.1737L386.215 54.9428C386.474 15.6583 452.81 -1.72122e-06 492.152 0ZM509.548 104.153C496.532 117.98 478.068 126.612 457.589 126.612L457.128 126.61C436.834 126.481 418.55 117.876 405.632 104.153C398.054 114.678 393.59 127.598 393.59 141.562C393.59 176.595 421.689 205.06 456.56 205.61C449.626 204.906 444.215 199.045 444.215 191.919V140.374C444.215 132.773 450.371 126.611 457.965 126.611C465.559 126.611 471.715 132.773 471.715 140.374V191.919C471.715 198.977 466.407 204.793 459.568 205.588C493.999 204.542 521.59 176.277 521.59 141.562C521.59 127.598 517.126 114.678 509.548 104.153ZM457.59 77.5057C438.873 77.5057 422.032 85.5479 410.329 98.3681C422.032 111.188 438.872 119.23 457.589 119.23C457.676 119.23 457.762 119.23 457.849 119.229C450.308 119.167 444.215 113.03 444.215 105.468V91.3304C444.215 83.7298 450.371 77.5683 457.965 77.5683C465.559 77.5683 471.715 83.7298 471.715 91.3304V105.468C471.715 112.96 465.733 119.054 458.289 119.226C476.726 119.028 493.293 111.028 504.85 98.3676C493.147 85.5478 476.307 77.5057 457.59 77.5057ZM492.152 7.3815C473.2 7.3815 447.7 11.1936 427.203 19.6196C406.146 28.2755 393.589 40.3018 393.589 55.1737C393.589 69.1375 398.054 82.0577 405.632 92.5827C418.647 78.756 437.112 70.1242 457.59 70.1242C478.068 70.1242 496.532 78.7558 509.548 92.5822C517.125 82.0573 521.589 69.1373 521.589 55.1737C521.589 45.0761 521.749 37.0607 521.391 30.2984C521.032 23.515 520.178 19.0651 518.7 16.0015C517.412 13.3326 515.5 11.3876 511.83 9.94002C507.808 8.35358 501.67 7.3815 492.152 7.3815Z" fill="white"/>
<path d="M47.7594 188.206C47.7594 189.003 47.7152 189.711 47.6268 190.331C47.5383 190.906 47.3835 191.393 47.1624 191.791C46.9413 192.19 46.676 192.477 46.3664 192.654C46.1011 192.831 45.7916 192.92 45.4378 192.92H4.24528C3.22818 192.92 2.25531 192.588 1.32665 191.924C0.442217 191.216 0 189.999 0 188.272V111.657C0 109.931 0.442217 108.736 1.32665 108.072C2.25531 107.364 3.22818 107.01 4.24528 107.01H44.9735C45.3272 107.01 45.6368 107.098 45.9021 107.275C46.2117 107.452 46.4549 107.74 46.6318 108.139C46.8087 108.537 46.9413 109.046 47.0298 109.666C47.1624 110.241 47.2288 110.971 47.2288 111.856C47.2288 112.653 47.1624 113.361 47.0298 113.981C46.9413 114.556 46.8087 115.043 46.6318 115.442C46.4549 115.796 46.2117 116.061 45.9021 116.238C45.6368 116.415 45.3272 116.504 44.9735 116.504H11.4092V143.459H40.1975C40.5513 143.459 40.8608 143.569 41.1262 143.79C41.4357 143.968 41.6789 144.233 41.8558 144.587C42.0769 144.941 42.2317 145.428 42.3202 146.048C42.4086 146.667 42.4528 147.398 42.4528 148.239C42.4528 149.035 42.4086 149.721 42.3202 150.297C42.2317 150.872 42.0769 151.337 41.8558 151.691C41.6789 152.045 41.4357 152.311 41.1262 152.488C40.8608 152.62 40.5513 152.687 40.1975 152.687H11.4092V183.426H45.4378C45.7916 183.426 46.1011 183.514 46.3664 183.691C46.676 183.869 46.9413 184.156 47.1624 184.555C47.3835 184.909 47.5383 185.396 47.6268 186.015C47.7152 186.591 47.7594 187.321 47.7594 188.206Z" fill="white"/>
<path d="M116.316 191.26C116.316 191.614 116.228 191.924 116.051 192.19C115.918 192.411 115.653 192.61 115.255 192.787C114.857 192.964 114.326 193.097 113.663 193.185C113.044 193.274 112.27 193.318 111.342 193.318C110.324 193.318 109.484 193.274 108.821 193.185C108.202 193.097 107.693 192.964 107.295 192.787C106.941 192.61 106.698 192.411 106.566 192.19C106.433 191.924 106.367 191.614 106.367 191.26V183.36C102.962 187.122 99.6007 189.866 96.2841 191.592C92.9674 193.318 89.6066 194.181 86.2015 194.181C82.2216 194.181 78.8607 193.517 76.119 192.19C73.4214 190.862 71.2325 189.069 69.5521 186.812C67.8716 184.51 66.6555 181.855 65.9038 178.845C65.1962 175.791 64.8424 172.095 64.8424 167.758V131.508C64.8424 131.154 64.9088 130.866 65.0414 130.645C65.2183 130.38 65.5279 130.158 65.9701 129.981C66.4123 129.76 66.9872 129.627 67.6947 129.583C68.4023 129.494 69.2867 129.45 70.348 129.45C71.4094 129.45 72.2938 129.494 73.0013 129.583C73.7089 129.627 74.2617 129.76 74.6597 129.981C75.1019 130.158 75.4114 130.38 75.5883 130.645C75.7652 130.866 75.8536 131.154 75.8536 131.508V166.297C75.8536 169.794 76.0969 172.604 76.5833 174.729C77.114 176.809 77.8878 178.602 78.9049 180.106C79.9663 181.567 81.2929 182.718 82.8849 183.559C84.4769 184.355 86.3342 184.754 88.4568 184.754C91.1986 184.754 93.9182 183.78 96.6157 181.833C99.3575 179.885 102.254 177.03 105.305 173.268V131.508C105.305 131.154 105.372 130.866 105.504 130.645C105.681 130.38 105.991 130.158 106.433 129.981C106.875 129.76 107.428 129.627 108.091 129.583C108.799 129.494 109.705 129.45 110.811 129.45C111.872 129.45 112.757 129.494 113.464 129.583C114.172 129.627 114.724 129.76 115.122 129.981C115.52 130.158 115.808 130.38 115.985 130.645C116.206 130.866 116.316 131.154 116.316 131.508V191.26Z" fill="white"/>
<path d="M188.057 191.26C188.057 191.614 187.969 191.924 187.792 192.19C187.615 192.411 187.328 192.61 186.93 192.787C186.532 192.964 185.979 193.097 185.272 193.185C184.564 193.274 183.68 193.318 182.618 193.318C181.513 193.318 180.606 193.274 179.899 193.185C179.191 193.097 178.638 192.964 178.24 192.787C177.842 192.61 177.555 192.411 177.378 192.19C177.201 191.924 177.113 191.614 177.113 191.26V156.272C177.113 152.864 176.847 150.12 176.317 148.04C175.786 145.959 175.012 144.167 173.995 142.662C172.978 141.157 171.651 140.006 170.015 139.21C168.423 138.413 166.566 138.014 164.443 138.014C161.701 138.014 158.96 138.988 156.218 140.936C153.476 142.883 150.602 145.738 147.595 149.5V191.26C147.595 191.614 147.506 191.924 147.329 192.19C147.152 192.411 146.865 192.61 146.467 192.787C146.069 192.964 145.516 193.097 144.809 193.185C144.101 193.274 143.195 193.318 142.089 193.318C141.028 193.318 140.143 193.274 139.436 193.185C138.728 193.097 138.153 192.964 137.711 192.787C137.313 192.61 137.026 192.411 136.849 192.19C136.716 191.924 136.65 191.614 136.65 191.26V131.508C136.65 131.154 136.716 130.866 136.849 130.645C136.981 130.38 137.247 130.158 137.645 129.981C138.043 129.76 138.551 129.627 139.17 129.583C139.79 129.494 140.608 129.45 141.625 129.45C142.598 129.45 143.394 129.494 144.013 129.583C144.676 129.627 145.185 129.76 145.538 129.981C145.892 130.158 146.135 130.38 146.268 130.645C146.445 130.866 146.533 131.154 146.533 131.508V139.409C149.894 135.647 153.233 132.902 156.55 131.176C159.91 129.406 163.293 128.521 166.698 128.521C170.678 128.521 174.017 129.207 176.715 130.579C179.456 131.906 181.667 133.699 183.348 135.956C185.028 138.214 186.222 140.869 186.93 143.923C187.682 146.933 188.057 150.562 188.057 154.811V191.26Z" fill="white"/>
<path d="M263.646 160.72C263.646 165.589 263.005 170.081 261.722 174.198C260.44 178.27 258.516 181.788 255.951 184.754C253.431 187.719 250.247 190.043 246.399 191.725C242.596 193.362 238.174 194.181 233.133 194.181C228.224 194.181 223.935 193.451 220.264 191.99C216.638 190.53 213.609 188.405 211.177 185.617C208.745 182.828 206.931 179.442 205.737 175.459C204.544 171.476 203.947 166.961 203.947 161.915C203.947 157.047 204.566 152.576 205.804 148.504C207.086 144.388 208.988 140.847 211.508 137.882C214.073 134.916 217.257 132.615 221.06 130.977C224.863 129.339 229.308 128.521 234.393 128.521C239.302 128.521 243.569 129.251 247.195 130.711C250.866 132.172 253.917 134.297 256.349 137.085C258.781 139.873 260.594 143.259 261.788 147.243C263.027 151.226 263.646 155.719 263.646 160.72ZM252.104 161.45C252.104 158.219 251.794 155.165 251.175 152.289C250.6 149.412 249.628 146.889 248.257 144.72C246.886 142.551 245.028 140.847 242.685 139.608C240.341 138.324 237.422 137.683 233.929 137.683C230.701 137.683 227.915 138.258 225.571 139.409C223.271 140.559 221.37 142.197 219.866 144.322C218.363 146.402 217.235 148.88 216.483 151.757C215.776 154.634 215.422 157.777 215.422 161.185C215.422 164.46 215.709 167.536 216.284 170.413C216.903 173.29 217.898 175.813 219.269 177.982C220.684 180.106 222.564 181.81 224.908 183.094C227.251 184.333 230.17 184.953 233.663 184.953C236.847 184.953 239.611 184.378 241.955 183.227C244.299 182.076 246.222 180.46 247.726 178.38C249.23 176.3 250.335 173.821 251.043 170.944C251.75 168.067 252.104 164.903 252.104 161.45Z" fill="white"/>
<path d="M290.811 191.26C290.811 191.614 290.723 191.924 290.546 192.19C290.369 192.411 290.082 192.61 289.684 192.787C289.286 192.964 288.733 193.097 288.025 193.185C287.318 193.274 286.411 193.318 285.306 193.318C284.244 193.318 283.36 193.274 282.652 193.185C281.945 193.097 281.37 192.964 280.928 192.787C280.53 192.61 280.242 192.411 280.065 192.19C279.933 191.924 279.866 191.614 279.866 191.26V131.508C279.866 131.198 279.933 130.911 280.065 130.645C280.242 130.38 280.53 130.158 280.928 129.981C281.37 129.804 281.945 129.671 282.652 129.583C283.36 129.494 284.244 129.45 285.306 129.45C286.411 129.45 287.318 129.494 288.025 129.583C288.733 129.671 289.286 129.804 289.684 129.981C290.082 130.158 290.369 130.38 290.546 130.645C290.723 130.911 290.811 131.198 290.811 131.508V191.26ZM292.072 111.325C292.072 113.892 291.585 115.641 290.612 116.57C289.639 117.5 287.848 117.964 285.239 117.964C282.675 117.964 280.906 117.522 279.933 116.637C279.004 115.707 278.54 113.981 278.54 111.458C278.54 108.891 279.026 107.143 279.999 106.213C280.972 105.284 282.763 104.819 285.372 104.819C287.937 104.819 289.684 105.284 290.612 106.213C291.585 107.098 292.072 108.802 292.072 111.325Z" fill="white"/>
<path d="M356.118 191.326C356.118 191.858 355.941 192.256 355.587 192.521C355.234 192.787 354.747 192.986 354.128 193.119C353.509 193.252 352.602 193.318 351.408 193.318C350.259 193.318 349.33 193.252 348.623 193.119C347.959 192.986 347.473 192.787 347.163 192.521C346.854 192.256 346.699 191.858 346.699 191.326V185.351C344.09 188.14 341.171 190.308 337.943 191.858C334.759 193.407 331.376 194.181 327.794 194.181C324.654 194.181 321.802 193.761 319.237 192.92C316.717 192.123 314.55 190.95 312.737 189.401C310.968 187.852 309.575 185.949 308.558 183.691C307.585 181.434 307.098 178.867 307.098 175.99C307.098 172.626 307.784 169.705 309.155 167.227C310.526 164.748 312.493 162.69 315.058 161.052C317.623 159.415 320.763 158.197 324.477 157.401C328.192 156.56 332.371 156.139 337.014 156.139H345.24V151.492C345.24 149.19 344.996 147.154 344.51 145.384C344.023 143.613 343.227 142.153 342.122 141.002C341.061 139.807 339.668 138.922 337.943 138.346C336.218 137.727 334.096 137.417 331.575 137.417C328.878 137.417 326.445 137.749 324.278 138.413C322.156 139.032 320.276 139.741 318.64 140.537C317.048 141.29 315.699 141.998 314.594 142.662C313.533 143.281 312.737 143.591 312.206 143.591C311.852 143.591 311.543 143.503 311.277 143.326C311.012 143.149 310.769 142.883 310.548 142.529C310.371 142.175 310.238 141.732 310.15 141.201C310.061 140.626 310.017 140.006 310.017 139.342C310.017 138.236 310.083 137.373 310.216 136.753C310.393 136.089 310.769 135.469 311.344 134.894C311.963 134.319 313.002 133.655 314.461 132.902C315.921 132.106 317.601 131.398 319.503 130.778C321.404 130.114 323.483 129.583 325.738 129.184C327.993 128.742 330.271 128.521 332.57 128.521C336.86 128.521 340.508 129.007 343.515 129.981C346.522 130.955 348.954 132.393 350.812 134.297C352.669 136.156 354.018 138.479 354.858 141.268C355.698 144.056 356.118 147.309 356.118 151.027V191.326ZM345.24 164.04H335.887C332.88 164.04 330.271 164.305 328.059 164.836C325.848 165.323 324.013 166.076 322.554 167.094C321.095 168.067 320.011 169.262 319.304 170.679C318.64 172.051 318.309 173.644 318.309 175.459C318.309 178.557 319.281 181.036 321.227 182.895C323.217 184.709 325.981 185.617 329.519 185.617C332.393 185.617 335.046 184.887 337.479 183.426C339.955 181.965 342.542 179.73 345.24 176.72V164.04Z" fill="white"/>
</svg>
